# xmcd
#
# Track frame offsets:
#	150
#	16220
#	34421
#	51525
#	73882
#	93206
#	120231
#	139032
#	154046
#	174927
#	186240
#	218150
#
# Disc length: 3169 seconds
#
# Revision: 0
# Processed by: cddbd v1.5.2PL0 Copyright (c) Steve Scherf et al.
# Submitted via: Jack! The Knife
#
DISCID=a30c5f0c
DTITLE=Ligabue - Arrivederci, Mostro!
DYEAR=2010
DGENRE=Rock
TTITLE0=Quando canterai la tua canzone
TTITLE1=La linea sottile
TTITLE2=Nel tempo
TTITLE3=Ci sei sempre stata
TTITLE4=La verità è una scelta
TTITLE5=Caro il mio Francesco
TTITLE6=Atto di fede
TTITLE7=Un colpo all'anima
TTITLE8=Il peso della valigia
TTITLE9=Taca banda
TTITLE10=Quando mi vieni a prendere
TTITLE11=Il meglio deve ancora venire
EXTD=Corrado Rustici
EXTT0=
EXTT1=
EXTT2=
EXTT3=
EXTT4=
EXTT5=
EXTT6=
EXTT7=
EXTT8=
EXTT9=
EXTT10=
EXTT11=
PLAYORDER=
